<svg width="19" height="10" viewBox="0 0 19 10" fill="none" xmlns="http://www.w3.org/2000/svg">
<path d="M10 8.33333V6.66667H12.5V7.5H15.8333V5.83333H11.6667C10.75 5.83333 10 5.08333 10 4.16667V1.66667C10 0.75 10.75 0 11.6667 0H16.6667C17.5833 0 18.3333 0.75 18.3333 1.66667V3.33333H15.8333V2.5H12.5V4.16667H16.6667C17.5833 4.16667 18.3333 4.91667 18.3333 5.83333V8.33333C18.3333 9.25 17.5833 10 16.6667 10H11.6667C10.75 10 10 9.25 10 8.33333ZM5 0V7.5H2.5V5.83333H0V7.5C0 8.88333 1.11667 10 2.5 10H5C6.38333 10 7.5 8.88333 7.5 7.5V0H5Z" fill="white"/>
</svg>
