<svg width="40" height="40" viewBox="0 0 40 40" fill="none" xmlns="http://www.w3.org/2000/svg">
<path d="M35.6667 18.9146H39.8333C39.8333 8.22709 31.7646 0.166672 21.0625 0.166672V4.33334C29.525 4.33334 35.6667 10.4646 35.6667 18.9146Z" fill="#BB7A3B"/>
<path d="M21.0834 12.6667C25.4647 12.6667 27.3334 14.5354 27.3334 18.9167H31.5001C31.5001 12.1979 27.8022 8.5 21.0834 8.5V12.6667ZM28.2126 24.0063C27.8123 23.6424 27.2862 23.4484 26.7455 23.4651C26.2048 23.4818 25.6918 23.708 25.3147 24.0958L20.3293 29.2229C19.1293 28.9938 16.7168 28.2417 14.2334 25.7646C11.7501 23.2792 10.998 20.8604 10.7751 19.6688L15.898 14.6813C16.2864 14.3044 16.5129 13.7913 16.5296 13.2504C16.5463 12.7096 16.3519 12.1834 15.9876 11.7833L8.28968 3.31875C7.92519 2.91741 7.4186 2.67397 6.8775 2.64013C6.3364 2.60629 5.80343 2.78471 5.39177 3.1375L0.870933 7.01459C0.510748 7.37608 0.295765 7.85719 0.266766 8.36667C0.235516 8.8875 -0.360317 21.225 9.20635 30.7958C17.5522 39.1396 28.0063 39.75 30.8855 39.75C31.3063 39.75 31.5647 39.7375 31.6334 39.7333C32.1428 39.7048 32.6237 39.4889 32.9834 39.1271L36.8584 34.6042C37.2115 34.1928 37.3903 33.6599 37.3568 33.1189C37.3234 32.5778 37.0803 32.071 36.6793 31.7063L28.2126 24.0063V24.0063Z" fill="#BB7A3B"/>
</svg>
